<svg width="71" height="49" viewBox="0 0 71 49" fill="none" xmlns="http://www.w3.org/2000/svg">
<path d="M28.2387 0.478516L0.583008 10.5443L28.2387 20.61L55.8943 10.5443L28.2387 0.478516Z" fill="#00B074"/>
<path d="M17.0138 4.58398L11.8086 6.43608L39.4643 16.5421L44.6242 14.6497L17.0138 4.58398Z" fill="#F7C604"/>
<path d="M0.583008 10.5449V38.2861L28.2387 48.3519V20.6107L0.583008 10.5449Z" fill="#0A5239"/>
<path d="M55.8944 10.5449V38.2861L28.2388 48.3519V20.6107L55.8944 10.5449Z" fill="#00D68D"/>
<path opacity="0.1" d="M55.8943 24.7162C55.0796 24.5551 54.2649 24.4746 53.4049 24.4746C46.706 24.4746 41.2744 29.3062 41.2744 35.2651C41.2744 38.0432 42.4513 40.5798 44.3976 42.4722L55.8943 38.2848V24.7162Z" fill="#0C1E5B"/>
<path d="M39.4644 16.5428V28.1788L44.6243 26.2864V14.6504L39.4644 16.5428Z" fill="#F7C604"/>
<path d="M58.3385 45.2489C65.038 45.2489 70.4689 40.4179 70.4689 34.4584C70.4689 28.499 65.038 23.668 58.3385 23.668C51.639 23.668 46.208 28.499 46.208 34.4584C46.208 40.4179 51.639 45.2489 58.3385 45.2489Z" fill="#FF5B5B"/>
<path d="M57.0715 38.6475C56.7093 38.6475 56.3925 38.5268 56.1209 38.2852L52.2736 34.8628C51.7304 34.3797 51.7304 33.6147 52.2736 33.1718C52.8167 32.6886 53.6767 32.6886 54.1746 33.1718L57.0715 35.7486L62.503 30.9171C63.0462 30.4339 63.9062 30.4339 64.404 30.9171C64.9472 31.4002 64.9472 32.1652 64.404 32.6081L58.022 38.2852C57.7504 38.5268 57.4336 38.6475 57.0715 38.6475Z" fill="white"/>
<path d="M9.54512 34.5402L6.55777 29.0645L3.75146 32.3258L5.29041 32.9297V36.4728L7.77987 37.4794V33.896L9.54512 34.5402Z" fill="#F2F5F3"/>
</svg>
