<svg width="70" height="46" viewBox="0 0 70 46" fill="none" xmlns="http://www.w3.org/2000/svg">
<path d="M6.8252 45.2445C10.5814 45.2445 13.6505 42.5111 13.6505 39.1657V0H53.5028V39.1657C53.5028 42.5111 50.4337 45.2445 46.6775 45.2445" fill="#00B074"/>
<path d="M39.8523 39.1648V34.5547H0V39.1648C0 42.5102 3.06909 45.2437 6.82528 45.2437H46.6776C42.9214 45.2437 39.8523 42.5102 39.8523 39.1648Z" fill="#0A5239"/>
<path d="M25.881 7.79297H20.7964V9.75125H25.881V7.79297Z" fill="white"/>
<path d="M45.4411 7.79297H29.8208V9.75125H45.4411V7.79297Z" fill="#F7C604"/>
<path d="M25.881 14.7285H20.7964V16.6868H25.881V14.7285Z" fill="white"/>
<path d="M45.4411 14.7285H29.8208V16.6868H45.4411V14.7285Z" fill="#F7C604"/>
<path d="M25.881 21.6641H20.7964V23.6223H25.881V21.6641Z" fill="white"/>
<path d="M45.4411 21.6641H29.8208V23.6223H45.4411V21.6641Z" fill="#F7C604"/>
<path d="M25.881 28.5996H20.7964V30.5579H25.881V28.5996Z" fill="white"/>
<path d="M45.4411 28.5996H29.8208V30.5579H45.4411V28.5996Z" fill="#F7C604"/>
<path opacity="0.1" d="M53.503 28.9256V5.6302C52.9533 5.54861 52.3578 5.50781 51.7623 5.50781C44.479 5.50781 38.5698 10.7707 38.5698 17.2575C38.5698 23.7443 44.479 29.0072 51.7623 29.0072C52.3578 29.048 52.9533 29.0072 53.503 28.9256Z" fill="#0C1E5B"/>
<path d="M56.3894 26.6813C63.6755 26.6813 69.582 21.4207 69.582 14.9315C69.582 8.44222 63.6755 3.18164 56.3894 3.18164C49.1033 3.18164 43.1968 8.44222 43.1968 14.9315C43.1968 21.4207 49.1033 26.6813 56.3894 26.6813Z" fill="#FF5B5B"/>
<path d="M58.7247 15.7481V8.44531H54.0524V15.7481H50.9375L56.3886 21.4189L61.8396 15.7481H58.7247Z" fill="white"/>
</svg>
