<svg width="47" height="50" viewBox="0 0 47 50" fill="none" xmlns="http://www.w3.org/2000/svg">
<path d="M30.25 16.5C30.25 21.0563 26.5564 24.75 22 24.75C17.4437 24.75 13.75 21.0563 13.75 16.5C13.75 11.9437 17.4437 8.25 22 8.25C26.5564 8.25 30.25 11.9437 30.25 16.5Z" fill="#00D68D"/>
<path fill-rule="evenodd" clip-rule="evenodd" d="M0 22C0 9.84974 9.84974 0 22 0C34.1503 0 44 9.84974 44 22C44 34.1503 34.1503 44 22 44C9.84974 44 0 34.1503 0 22ZM22 2.75C11.3685 2.75 2.75 11.3685 2.75 22C2.75 26.5469 4.32646 30.7256 6.96262 34.0194C8.91806 30.8694 13.2128 27.5 22 27.5C30.7873 27.5 35.082 30.8694 37.0374 34.0194C39.6736 30.7257 41.25 26.5469 41.25 22C41.25 11.3685 32.6315 2.75 22 2.75Z" fill="#00D68D"/>
<path d="M36.5 49.7034C42.299 49.7034 47 45.5165 47 40.3517C47 35.1869 42.299 31 36.5 31C30.701 31 26 35.1869 26 40.3517C26 45.5165 30.701 49.7034 36.5 49.7034Z" fill="#FF5B5B"/>
<g clip-path="url(#clip0_803_1194)">
<path fill-rule="evenodd" clip-rule="evenodd" d="M37.2857 35.9888C37.2857 35.5549 36.9339 35.2031 36.5 35.2031C36.0661 35.2031 35.7143 35.5549 35.7143 35.9888V39.9174H31.7857C31.3518 39.9174 31 40.2692 31 40.7031C31 41.1371 31.3518 41.4888 31.7857 41.4888H35.7143V45.4174C35.7143 45.8514 36.0661 46.2031 36.5 46.2031C36.9339 46.2031 37.2857 45.8514 37.2857 45.4174V41.4888H41.2143C41.6482 41.4888 42 41.1371 42 40.7031C42 40.2692 41.6482 39.9174 41.2143 39.9174H37.2857V35.9888Z" fill="#FAFCFF"/>
</g>
<defs>
<clipPath id="clip0_803_1194">
<rect width="11" height="11" fill="white" transform="translate(31 35.2031)"/>
</clipPath>
</defs>
</svg>
