<svg width="71" height="46" viewBox="0 0 71 46" fill="none" xmlns="http://www.w3.org/2000/svg">
<path d="M7.47412 45.9652C11.2303 45.9652 14.2994 43.2318 14.2994 39.8864V0.720703H54.1517V39.8864C54.1517 43.2318 51.0826 45.9652 47.3264 45.9652" fill="#00B074"/>
<path d="M40.5012 39.8855V35.2754H0.648926V39.8855C0.648926 43.2309 3.71801 45.9644 7.47421 45.9644H47.3265C43.5703 45.9644 40.5012 43.2309 40.5012 39.8855Z" fill="#0A5239"/>
<path d="M26.5299 8.50977H21.4453V10.468H26.5299V8.50977Z" fill="#F7C604"/>
<path d="M46.089 8.50977H30.4688V10.468H46.089V8.50977Z" fill="#F3F2F7"/>
<path d="M26.5299 15.4492H21.4453V17.4075H26.5299V15.4492Z" fill="#F7C604"/>
<path d="M46.089 15.4492H30.4688V17.4075H46.089V15.4492Z" fill="#F3F2F7"/>
<path d="M26.5299 22.3848H21.4453V24.343H26.5299V22.3848Z" fill="#F7C604"/>
<path d="M46.089 22.3848H30.4688V24.343H46.089V22.3848Z" fill="#F3F2F7"/>
<path d="M26.5299 29.3203H21.4453V31.2786H26.5299V29.3203Z" fill="#F7C604"/>
<path d="M46.089 29.3203H30.4688V31.2786H46.089V29.3203Z" fill="#F3F2F7"/>
<path opacity="0.1" d="M54.1519 29.6463V6.35091C53.6022 6.26931 53.0067 6.22852 52.4112 6.22852C45.1279 6.22852 39.2188 11.4914 39.2188 17.9782C39.2188 24.465 45.1279 29.7279 52.4112 29.7279C53.0067 29.7687 53.6022 29.7279 54.1519 29.6463Z" fill="#0C1E5B"/>
<path d="M57.0383 27.402C64.3244 27.402 70.2309 22.1414 70.2309 15.6522C70.2309 9.16292 64.3244 3.90234 57.0383 3.90234C49.7522 3.90234 43.8457 9.16292 43.8457 15.6522C43.8457 22.1414 49.7522 27.402 57.0383 27.402Z" fill="#FF5B5B"/>
<path d="M62.217 10.8594L51.4478 20.439M51.4478 10.8594L62.217 20.439" stroke="white" stroke-width="4"/>
<path d="M62.217 10.8594L51.4478 20.439M51.4478 10.8594L62.217 20.439" stroke="white" stroke-width="4"/>
</svg>
